<svg xmlns="http://www.w3.org/2000/svg" viewBox="0 0 1560 1140" font-family="Geist, 'Helvetica Neue', Arial, sans-serif">
<defs><marker id="arrow" markerWidth="8" markerHeight="8" refX="6" refY="4" orient="auto"><path d="M0,1 L6,4 L0,7 Z" fill="#8A847C"/></marker>
<style>
.sw{fill:#FFFFFF;stroke:#D8D4CE;stroke-width:1.5} .core{fill:#FFFFFF;stroke:#E8500A;stroke-width:2.5}
.bk{fill:#FFFFFF;stroke:#E8500A;stroke-width:1.5;stroke-dasharray:5 4} .ap{fill:#FBFAF8;stroke:#D8D4CE;stroke-width:1.2}
.tent{fill:#FDF0E8;stroke:#E8500A;stroke-width:2}
.nt{fill:#1A1A1A;font-size:13.5px;font-weight:700} .ns{fill:#6B6660;font-size:10.5px}
.nap{fill:#3A3631;font-size:11px;font-weight:600}
.zhead{fill:#E8500A;font-size:10.5px;font-weight:700;letter-spacing:1px}
.head{fill:#E8500A;font-size:13px;font-weight:700;letter-spacing:1.5px} .head2{fill:#E8500A;font-size:11px;font-weight:700;letter-spacing:1.5px}
.lbl{fill:#8A847C;font-size:9.5px;font-style:italic} .lblO{fill:#E8500A;font-size:10.5px;font-style:italic}
.fiber{stroke:#3A3631;stroke-width:2.4;fill:none} .cop{stroke:#8A847C;stroke-width:1.6;fill:none}
.wifi{stroke:#E8500A;stroke-width:1.8;fill:none;stroke-dasharray:5 5}
</style></defs>
<rect x="0" y="0" width="1560" height="1140" fill="#F4F2EF"/>
<text x="40" y="42" class="head">FoST FEST &#8212; SNUG HARBOR &#183; NETWORK TOPOLOGY</text>
<rect x="40" y="70" width="250" height="46" rx="9" class="sw"/>
<text x="54" y="90" class="nt">Verizon FiOS</text>
<text x="54" y="107" class="ns">Dedicated Gigabit &#183; primary WAN</text>
<rect x="40" y="124" width="250" height="46" rx="9" class="bk"/>
<text x="54" y="144" class="nt">LTE Failover &#183; Peplink</text>
<text x="54" y="161" class="ns">Cellular backup WAN</text>
<rect x="360" y="95" width="230" height="50" rx="9" class="sw"/>
<text x="374" y="118" class="nt">FortiGate Firewall</text>
<text x="374" y="135" class="ns">Perimeter &#183; NAT &#183; QoS</text>
<line x1="290" y1="93" x2="360" y2="114" class="cop" marker-end="url(#arrow)"/>
<line x1="290" y1="147" x2="360" y2="128" class="wifi" marker-end="url(#arrow)"/>
<rect x="560" y="185" width="250" height="56" rx="9" class="core"/>
<text x="574" y="210" class="nt">Core Switch &#183; Cisco</text>
<text x="574" y="229" class="ns">STP root bridge &#183; Building G</text>
<rect x="850" y="185" width="230" height="56" rx="9" class="sw"/>
<text x="864" y="210" class="nt">Ruckus Controller</text>
<text x="864" y="229" class="ns">Centralized AP management</text>
<line x1="475" y1="145" x2="650" y2="185" class="cop" marker-end="url(#arrow)"/>
<line x1="810" y1="213" x2="850" y2="213" class="cop" />
<line x1="120" y1="300" x2="1440" y2="300" class="fiber" />
<line x1="685" y1="241" x2="685" y2="300" class="fiber" />
<text x="694" y="292" class="lbl">backbone</text>
<text x="66" y="333" class="zhead">BUILDING G (MDF)</text>
<line x1="185.0" y1="300" x2="185.0" y2="345" class="cop" marker-end="url(#arrow)"/>
<rect x="60" y="345" width="250" height="46" rx="9" class="sw"/>
<text x="74" y="365" class="nt">Reception PoE Switch</text>
<text x="74" y="382" class="ns">feeds Building C</text>
<line x1="185.0" y1="391" x2="76" y2="391" class="cop" />
<rect x="90" y="409" width="210" height="28" rx="9" class="ap"/>
<text x="102" y="427" class="nap">Ruckus AP &#183; G1</text>
<line x1="76" y1="423" x2="90" y2="423" class="cop" />
<rect x="90" y="445" width="210" height="28" rx="9" class="ap"/>
<text x="102" y="463" class="nap">Ruckus AP &#183; G2</text>
<line x1="76" y1="459" x2="90" y2="459" class="cop" />
<rect x="90" y="481" width="210" height="28" rx="9" class="ap"/>
<text x="102" y="499" class="nap">Ruckus AP &#183; G3</text>
<line x1="76" y1="495" x2="90" y2="495" class="cop" />
<rect x="90" y="517" width="210" height="28" rx="9" class="ap"/>
<text x="102" y="535" class="nap">Ruckus AP &#183; G4</text>
<line x1="76" y1="531" x2="90" y2="531" class="cop" />
<rect x="90" y="553" width="210" height="28" rx="9" class="ap"/>
<text x="102" y="571" class="nap">Ruckus AP &#183; G5</text>
<line x1="76" y1="567" x2="90" y2="567" class="cop" />
<line x1="76" y1="391" x2="76" y2="567" class="cop" />
<text x="66" y="595" class="zhead">BUILDING C</text>
<rect x="60" y="599" width="250" height="44" rx="9" class="sw"/>
<text x="74" y="618" class="nt">PoE Switch</text>
<line x1="76" y1="567" x2="76" y2="621" class="cop" />
<line x1="76" y1="621" x2="60" y2="621" class="cop" />
<line x1="185.0" y1="643" x2="76" y2="643" class="cop" />
<rect x="90" y="661" width="210" height="28" rx="9" class="ap"/>
<text x="102" y="679" class="nap">Ruckus AP &#183; C1</text>
<line x1="76" y1="675" x2="90" y2="675" class="cop" />
<line x1="76" y1="643" x2="76" y2="675" class="cop" />
<text x="356" y="333" class="zhead">MUSIC HALL</text>
<line x1="475.0" y1="300" x2="475.0" y2="345" class="fiber" marker-end="url(#arrow)"/>
<text x="481.0" y="326.5" class="lbl">fiber</text>
<rect x="350" y="345" width="250" height="46" rx="9" class="sw"/>
<text x="364" y="365" class="nt">Cisco Switch</text>
<text x="364" y="382" class="ns">+ fiber media converter</text>
<line x1="475.0" y1="391" x2="366" y2="391" class="cop" />
<rect x="380" y="409" width="210" height="28" rx="9" class="ap"/>
<text x="392" y="427" class="nap">Ruckus AP &#183; M1</text>
<line x1="366" y1="423" x2="380" y2="423" class="cop" />
<rect x="380" y="445" width="210" height="28" rx="9" class="ap"/>
<text x="392" y="463" class="nap">Ruckus AP &#183; M2</text>
<line x1="366" y1="459" x2="380" y2="459" class="cop" />
<rect x="380" y="481" width="210" height="28" rx="9" class="ap"/>
<text x="392" y="499" class="nap">Ruckus AP &#183; M3</text>
<line x1="366" y1="495" x2="380" y2="495" class="cop" />
<rect x="380" y="517" width="210" height="28" rx="9" class="ap"/>
<text x="392" y="535" class="nap">Ruckus AP &#183; P1 (Carpenter)</text>
<line x1="366" y1="531" x2="380" y2="531" class="cop" />
<rect x="380" y="553" width="210" height="28" rx="9" class="ap"/>
<text x="392" y="571" class="nap">Ruckus AP &#183; T1 (Octagon)</text>
<line x1="366" y1="567" x2="380" y2="567" class="cop" />
<line x1="366" y1="391" x2="366" y2="567" class="cop" />
<text x="646" y="333" class="zhead">POWER PLANT</text>
<line x1="765.0" y1="300" x2="765.0" y2="345" class="fiber" marker-end="url(#arrow)"/>
<text x="771.0" y="326.5" class="lbl">fiber</text>
<rect x="640" y="345" width="250" height="46" rx="9" class="sw"/>
<text x="654" y="365" class="nt">Cisco Switch</text>
<text x="654" y="382" class="ns">+ pre-existing + FMC</text>
<line x1="765.0" y1="391" x2="656" y2="391" class="cop" />
<rect x="670" y="409" width="210" height="28" rx="9" class="ap"/>
<text x="682" y="427" class="nap">Ruckus AP &#183; S1 (Social Space)</text>
<line x1="656" y1="423" x2="670" y2="423" class="cop" />
<line x1="656" y1="391" x2="656" y2="423" class="cop" />
<text x="646" y="451" class="zhead">EXPANSION</text>
<rect x="640" y="455" width="250" height="44" rx="9" class="sw"/>
<text x="654" y="474" class="nt">PoE Switch</text>
<text x="654" y="490" class="ns">spare capacity</text>
<line x1="656" y1="423" x2="656" y2="477" class="cop" />
<line x1="656" y1="477" x2="640" y2="477" class="cop" />
<line x1="765.0" y1="499" x2="656" y2="499" class="cop" />
<line x1="656" y1="499" x2="656" y2="499" class="cop" />
<text x="936" y="333" class="zhead">BUILDING K</text>
<line x1="1055.0" y1="300" x2="1055.0" y2="345" class="cop" marker-end="url(#arrow)"/>
<rect x="930" y="345" width="250" height="46" rx="9" class="sw"/>
<text x="944" y="365" class="nt">PoE Switch</text>
<text x="944" y="382" class="ns">feeds Story Arcade</text>
<line x1="1055.0" y1="391" x2="946" y2="391" class="cop" />
<rect x="960" y="409" width="210" height="28" rx="9" class="ap"/>
<text x="972" y="427" class="nap">Ruckus AP &#183; K1</text>
<line x1="946" y1="423" x2="960" y2="423" class="cop" />
<rect x="960" y="445" width="210" height="28" rx="9" class="ap"/>
<text x="972" y="463" class="nap">Ruckus AP &#183; K2</text>
<line x1="946" y1="459" x2="960" y2="459" class="cop" />
<rect x="960" y="481" width="210" height="28" rx="9" class="ap"/>
<text x="972" y="499" class="nap">Ruckus AP &#183; K3</text>
<line x1="946" y1="495" x2="960" y2="495" class="cop" />
<rect x="960" y="517" width="210" height="28" rx="9" class="ap"/>
<text x="972" y="535" class="nap">Ruckus AP &#183; K4</text>
<line x1="946" y1="531" x2="960" y2="531" class="cop" />
<line x1="946" y1="391" x2="946" y2="531" class="cop" />
<text x="936" y="559" class="zhead">STORY ARCADE</text>
<rect x="930" y="563" width="250" height="44" rx="9" class="sw"/>
<text x="944" y="582" class="nt">PoE Switch</text>
<line x1="946" y1="531" x2="946" y2="585" class="cop" />
<line x1="946" y1="585" x2="930" y2="585" class="cop" />
<line x1="1055.0" y1="607" x2="946" y2="607" class="cop" />
<rect x="960" y="625" width="210" height="28" rx="9" class="ap"/>
<text x="972" y="643" class="nap">Ruckus AP &#183; A1</text>
<line x1="946" y1="639" x2="960" y2="639" class="cop" />
<line x1="946" y1="607" x2="946" y2="639" class="cop" />
<text x="1226" y="333" class="zhead">GREAT HALL</text>
<line x1="1345.0" y1="300" x2="1345.0" y2="345" class="cop" marker-end="url(#arrow)"/>
<rect x="1220" y="345" width="250" height="46" rx="9" class="sw"/>
<text x="1234" y="365" class="nt">Cisco Switch</text>
<text x="1234" y="382" class="ns">feeds Dome</text>
<line x1="1345.0" y1="391" x2="1236" y2="391" class="cop" />
<rect x="1250" y="409" width="210" height="28" rx="9" class="ap"/>
<text x="1262" y="427" class="nap">Ruckus AP &#183; H1</text>
<line x1="1236" y1="423" x2="1250" y2="423" class="cop" />
<rect x="1250" y="445" width="210" height="28" rx="9" class="ap"/>
<text x="1262" y="463" class="nap">Ruckus AP &#183; H2</text>
<line x1="1236" y1="459" x2="1250" y2="459" class="cop" />
<line x1="1236" y1="391" x2="1236" y2="459" class="cop" />
<text x="1226" y="487" class="zhead">DOME</text>
<rect x="1220" y="491" width="250" height="44" rx="9" class="sw"/>
<text x="1234" y="510" class="nt">Cisco Switch</text>
<line x1="1236" y1="459" x2="1236" y2="513" class="cop" />
<line x1="1236" y1="513" x2="1220" y2="513" class="cop" />
<line x1="1345.0" y1="535" x2="1236" y2="535" class="cop" />
<rect x="1250" y="553" width="210" height="28" rx="9" class="ap"/>
<text x="1262" y="571" class="nap">Ruckus AP &#183; D1</text>
<line x1="1236" y1="567" x2="1250" y2="567" class="cop" />
<line x1="1236" y1="535" x2="1236" y2="567" class="cop" />
<text x="1226" y="712" class="zhead">GREAT LAWN (L)</text>
<path d="M 656 520 C 656 660, 1100 660, 1236 680" class="cop" />
<text x="820" y="652" class="lbl">~300 ft outdoor Cat6</text>
<rect x="1220" y="720" width="250" height="48" rx="9" class="sw"/>
<text x="1234" y="740" class="nt">Pelican Relay</text>
<text x="1234" y="757" class="ns">sealed case &#183; PoE switch in brush</text>
<line x1="1236" y1="768" x2="1236" y2="812" class="cop" />
<line x1="1236" y1="812" x2="1250" y2="812" class="cop" />
<text x="1260" y="798" class="lbl">~300 ft outdoor Cat6</text>
<rect x="1250" y="798" width="220" height="30" rx="9" class="ap"/>
<text x="1262" y="818" class="nap">Outdoor Ruckus AP &#183; L1</text>
<rect x="1220" y="840" width="250" height="52" rx="9" class="tent"/>
<text x="1234" y="864" class="nt">Main Tent</text>
<text x="1234" y="881" class="ns">center of field &#183; 1000s of devices</text>
<line x1="1345" y1="828" x2="1345" y2="840" class="cop" marker-end="url(#arrow)"/>
<path d="M 660 258 C 540 320, 480 332, 475 345" class="wifi" />
<path d="M 720 258 C 760 320, 765 332, 765 345" class="wifi" />
<path d="M 1055 345 C 1055 290, 560 300, 475 345" class="wifi" />
<text x="430" y="628" class="lblO">UniFi point-to-point &#8212; wireless failover for fiber links</text>
<rect x="60" y="900" width="320" height="150" rx="9" class="sw"/>
<text x="76" y="926" class="head2">LEGEND</text>
<line x1="78" y1="950" x2="122" y2="950" class="fiber" />
<text x="134" y="954" class="ns">Fiber backbone</text>
<line x1="78" y1="978" x2="122" y2="978" class="cop" />
<text x="134" y="982" class="ns">Copper / Ethernet</text>
<line x1="78" y1="1006" x2="122" y2="1006" class="wifi" />
<text x="134" y="1010" class="ns">UniFi point-to-point failover</text>
<rect x="78" y="1024" width="16" height="14" rx="9" class="core"/>
<text x="134" y="1036" class="ns">STP root / core switch</text>
</svg>