<svg width="600" height="96" viewBox="0 0 600 96" fill="none" xmlns="http://www.w3.org/2000/svg">
<g clip-path="url(#clip0_1201_812)">
<path d="M167.627 58.4549C167.627 64.4772 165.235 70.2528 160.976 74.5112C156.718 78.7696 150.942 81.1619 144.92 81.1619H138.677C138.026 73.5929 130.216 67.1569 119.176 64.1679C121.96 61.421 123.864 57.9081 124.647 54.076C125.429 50.2439 125.054 46.2657 123.57 42.6472C122.085 39.0287 119.558 35.9335 116.31 33.7551C113.061 31.5767 109.238 30.4135 105.327 30.4135C101.416 30.4135 97.5932 31.5767 94.3449 33.7551C91.0965 35.9335 88.5694 39.0287 87.0849 42.6472C85.6003 46.2657 85.2254 50.2439 86.0078 54.076C86.7903 57.9081 88.6946 61.421 91.4788 64.1679C86.2271 65.4235 81.3461 67.9012 77.2327 71.3994C74.6367 69.9109 71.8571 68.7683 68.9647 68.0006C71.3582 65.6544 72.9989 62.6486 73.6774 59.3664C74.3559 56.0841 74.0415 52.6741 72.7744 49.5712C71.5073 46.4683 69.3448 43.8131 66.5627 41.9441C63.7806 40.075 60.5048 39.0769 57.1532 39.0769C53.8015 39.0769 50.5258 40.075 47.7437 41.9441C44.9615 43.8131 42.7991 46.4683 41.532 49.5712C40.2648 52.6741 39.9505 56.0841 40.629 59.3664C41.3075 62.6486 42.9481 65.6544 45.3417 68.0006C36.6397 70.4111 30.3001 75.2321 28.9502 81.0655H22.707C16.8096 80.8734 11.218 78.3956 7.11423 74.156C3.01042 69.9163 0.716019 64.247 0.716019 58.3465C0.716019 52.446 3.01042 46.7767 7.11423 42.537C11.218 38.2973 16.8096 35.8195 22.707 35.6274C25.5974 35.6376 28.4598 36.1938 31.1438 37.2666C32.9638 33.3119 35.8846 29.9652 39.5567 27.6269C43.2288 25.2885 47.4967 24.0575 51.8501 24.0811C52.4045 24.0811 52.9589 24.0811 53.4892 24.0811C54.6253 18.2016 57.5178 12.805 61.7849 8.60368C66.052 4.40239 71.4929 1.59407 77.3893 0.549532C83.2858 -0.495006 89.3603 0.273354 94.811 2.75316C100.262 5.23298 104.832 9.30761 107.919 14.4391C111.449 13.3665 115.179 13.1187 118.82 13.715C122.462 14.3112 125.918 15.7354 128.922 17.8779C131.926 20.0204 134.398 22.824 136.148 26.0727C137.898 29.3214 138.878 32.9283 139.014 36.6157C142.381 35.6988 145.914 35.5719 149.338 36.2449C152.762 36.9179 155.985 38.3727 158.754 40.4958C161.524 42.619 163.765 45.3531 165.304 48.4849C166.843 51.6168 167.638 55.0618 167.627 58.5514V58.4549ZM198.963 78.7997V40.2315H187.176V80.4629C187.176 83.1627 186.308 84.9706 183.633 84.9706C182.702 84.979 181.773 84.8901 180.861 84.7054L180.33 94.8537C181.59 95.0622 182.862 95.183 184.139 95.2152C195.083 95.1188 199.06 88.7792 199.06 78.7997H198.963ZM234.012 81.2102H245.535V40.0387H233.819V62.9385C233.937 64.0652 233.812 65.2041 233.453 66.2784C233.093 67.3527 232.508 68.3376 231.736 69.1667C230.964 69.9958 230.023 70.6498 228.977 71.0849C227.931 71.5199 226.804 71.7258 225.672 71.6887C221.333 71.6887 219.429 68.8443 219.429 64.5777V40.0387H207.641V67.8801C207.641 76.823 211.643 82.3431 219.429 82.3431C225.937 82.3431 230.975 78.1729 233.313 70.2906H234.181L234.012 81.2102ZM265.662 58.3103C265.566 57.1834 265.71 56.049 266.085 54.9818C266.459 53.9146 267.055 52.9388 267.834 52.1189C268.613 51.2989 269.557 50.6533 270.604 50.2248C271.65 49.7962 272.776 49.5944 273.906 49.6325C278.149 49.6325 280.149 52.501 280.149 56.6712V81.2102H291.937V58.3103C291.83 57.1893 291.963 56.0584 292.328 54.9929C292.692 53.9274 293.279 52.9517 294.05 52.1307C294.821 51.3098 295.758 50.6624 296.798 50.2316C297.839 49.8008 298.959 49.5966 300.084 49.6325C304.423 49.6325 306.328 52.501 306.328 56.6712V81.2102H318.211V53.3206C318.211 44.3776 314.138 38.8575 306.159 38.8575C299.385 38.8575 294.709 43.1 292.467 51.1511H291.503C290.997 43.4375 287.429 38.8575 280.149 38.8575C273.641 38.8575 268.7 43.0036 266.361 50.9101H265.494V39.894H253.971V81.0173H265.759L265.662 58.3103ZM366.253 60.7208C366.253 46.5711 361.119 39.0262 352.103 39.0262C345.523 39.0262 341.015 43.3652 338.845 50.5485H338.074V40.1351H326.263V94.4197H338.074V70.4834H338.749C340.846 77.7149 345.257 82.5359 352.103 82.5359C361.046 82.3672 366.398 74.8223 366.398 60.6967L366.253 60.7208ZM346.39 71.9779C341.352 71.9779 338.074 68.1693 338.074 62.3359V59.1058C338.074 53.2242 341.28 49.4638 346.487 49.4638C352.103 49.4638 354.634 53.0313 354.634 60.5762C354.634 68.1211 352.2 71.9538 346.487 71.9538L346.39 71.9779ZM399.638 56.8158L410.558 54.7187C409.088 44.7633 403.881 38.9539 391.66 38.9539C378.571 38.9539 370.592 47.1738 370.592 61.1547C370.592 75.1357 378.739 82.3913 391.732 82.3913C403.447 82.3913 409.256 76.4133 410.654 66.8676L399.807 64.2643C398.939 68.5068 396.939 72.0743 391.66 72.0743C385.585 72.0743 382.644 67.8318 382.644 60.528C382.644 52.742 386.019 49.2709 391.491 49.2709C396.963 49.2709 398.698 52.3564 399.735 56.7917L399.638 56.8158ZM429.191 25.4792H417.5V81.1619H429.288L429.191 25.4792ZM456.96 82.3672C470.049 82.3672 478.028 74.1233 478.028 60.6726C478.028 47.222 469.784 38.978 456.96 38.978C444.136 38.978 435.7 46.9568 435.7 60.6726C435.7 74.3884 443.703 82.3672 457.057 82.3672H456.96ZM456.96 48.8129C463.469 48.8129 466.313 53.0554 466.313 60.5039C466.313 67.9524 463.541 72.3154 456.96 72.3154C450.38 72.3154 447.583 67.9765 447.583 60.5039C447.583 53.0313 450.452 48.8129 456.96 48.8129ZM510.811 81.1619H522.333V40.0387H510.474V62.9385C510.588 64.0665 510.459 65.2058 510.097 66.2801C509.735 67.3544 509.147 68.3389 508.373 69.1675C507.599 69.9961 506.657 70.6497 505.61 71.0845C504.563 71.5193 503.435 71.7253 502.302 71.6887C497.987 71.6887 496.059 68.8443 496.059 64.5777V40.0387H484.271V67.8801C484.271 76.823 488.273 82.3431 496.059 82.3431C502.567 82.3431 507.605 78.1729 509.943 70.2906H510.811V81.1619ZM556.852 81.1619H568.639V25.4792H556.828V50.4521H556.056C553.887 43.2205 549.452 38.9298 542.871 38.9298C533.856 38.9298 528.649 46.6434 528.649 60.9378C528.649 74.8223 533.856 82.3672 542.702 82.3672C549.548 82.3672 554.056 77.5462 556.129 70.3147H556.828L556.852 81.1619ZM548.536 71.9538C542.726 71.9538 540.195 68.3139 540.195 60.9378C540.195 53.5616 542.799 49.5843 548.439 49.5843C553.646 49.5843 556.852 53.3929 556.852 59.395V62.6492C556.828 68.3139 553.477 71.9538 548.536 71.9538ZM199.542 28.5646C199.542 29.8233 199.169 31.0536 198.47 32.1002C197.77 33.1467 196.776 33.9623 195.614 34.444C194.451 34.9256 193.171 35.0517 191.937 34.8061C190.702 34.5606 189.568 33.9545 188.678 33.0645C187.788 32.1745 187.182 31.0406 186.937 29.8062C186.691 28.5717 186.817 27.2922 187.299 26.1293C187.781 24.9665 188.596 23.9726 189.643 23.2734C190.689 22.5741 191.92 22.2009 193.178 22.2009C194.014 22.2009 194.841 22.3655 195.614 22.6853C196.386 23.0051 197.087 23.4739 197.678 24.0648C198.269 24.6557 198.738 25.3573 199.058 26.1293C199.377 26.9014 199.542 27.7289 199.542 28.5646Z" fill="#002B49"/>
<path d="M587.007 70.459V72.1463H583.753V80.6072H581.752V72.1463H578.522V70.459H587.007ZM597.975 80.6072L597.614 74.6292C597.614 73.8578 597.614 72.8936 597.614 71.8089H597.493C597.228 72.7008 596.939 73.906 596.625 74.822L594.817 80.4626H592.72L590.888 74.6774L590.189 71.8089H590.069C590.069 72.7249 590.069 73.7132 590.069 74.6292L589.683 80.6072H587.755L588.502 70.459H591.515L593.275 75.4246C593.492 76.196 593.684 76.9432 593.95 78.0039C594.215 77.0638 594.432 76.196 594.673 75.4487L596.432 70.459H599.325L600.121 80.6072H597.975Z" fill="#002B49"/>
</g>
<defs>
<clipPath id="clip0_1201_812">
<rect width="600" height="95.1187" fill="white"/>
</clipPath>
</defs>
</svg>
